<?xml version="1.0" encoding="UTF-8"?>
<svg width="654px" height="378px" viewBox="0 0 654 378" version="1.1" xmlns="http://www.w3.org/2000/svg" xmlns:xlink="http://www.w3.org/1999/xlink">
    <!-- Generator: Sketch 52.6 (67491) - http://www.bohemiancoding.com/sketch -->
    <title>Group 14</title>
    <desc>Created with Sketch.</desc>
    <defs>
        <polygon id="path-1" points="0.5658 0.168122157 553.426 0.168122157 553.426 57.4552771 0.5658 57.4552771"></polygon>
    </defs>
    <g id="Page-1" stroke="none" stroke-width="1" fill="none" fill-rule="evenodd">
        <g id="Group-14">
            <path d="M95.9889,173.7059 C95.9069,142.0699 112.1029,120.8319 147.0529,120.7489 C158.0559,120.7269 167.6859,121.8029 177.3409,124.4059 L177.3879,146.9679 L166.1009,147.0029 L164.5629,133.2439 C160.0199,132.4269 153.6789,131.6229 147.9049,131.6339 C121.6159,131.6809 112.4349,148.0909 112.4829,170.9259 C112.5529,200.7759 123.1779,212.9979 148.3789,212.9509 C153.5839,212.9379 159.4989,212.2409 164.7289,211.1159 L166.9059,197.3559 L178.3109,197.3329 L177.5539,219.4799 C167.9229,222.1189 158.5649,223.6449 147.0059,223.6809 C112.3289,223.7629 96.0599,206.6079 95.9889,173.7059" id="Fill-1" fill="#126FFF"></path>
            <polygon id="Fill-3" fill="#126FFF" points="193.4537 212.8548 201.7117 212.2878 201.5107 126.8418 191.3117 126.8668 191.3007 117.3658 214.4067 115.7918 215.6607 116.8918 215.8727 212.8078 224.9597 212.7838 224.9837 222.1418 193.4657 222.2138"></polygon>
            <path d="M242.0074,200.7869 L242.1964,160.6199 L233.2394,160.6329 L233.2044,151.4159 L254.9504,150.2569 L256.1944,151.2149 L256.1814,198.4099 C256.2044,211.0689 265.0194,213.8129 271.6094,213.7899 C279.0384,213.7779 284.9544,210.3239 288.8004,207.6969 L288.8354,160.5029 L279.7484,160.5259 L279.7264,151.2979 L301.6014,150.2919 L302.9864,151.2499 L302.8444,211.9439 L311.9304,212.3229 L311.9534,221.6819 L291.7224,222.6869 L290.6104,221.4559 L289.6394,214.5819 C282.4934,220.1079 273.9754,223.6929 265.4444,223.7159 C249.6144,223.7519 242.0424,214.1449 242.0074,200.7869" id="Fill-5" fill="#126FFF"></path>
            <path d="M381.1998,185.4901 C381.1768,170.0861 374.4088,159.6271 360.6378,159.6621 C353.3378,159.6861 347.4328,161.8991 343.5888,164.5251 L343.6948,211.1631 C347.5408,212.2511 352.5108,213.2101 358.1528,213.1981 C374.2558,213.1521 381.2358,200.0781 381.1998,185.4901 M329.5458,220.0011 L329.3328,126.5711 L319.2758,126.5941 L319.2628,117.0931 L342.2518,115.5211 L343.4818,116.6331 L343.5778,155.9951 C348.9128,152.2681 356.2128,149.2151 365.0148,149.2031 C385.9328,149.1561 396.0128,163.2941 396.0598,184.0811 C396.1068,208.7031 379.9228,223.3251 357.7628,223.3731 C348.6768,223.3971 338.3468,222.4621 329.5458,220.0011" id="Fill-7" fill="#126FFF"></path>
            <g id="Group-11" transform="translate(100.000000, 258.000000)">
                <mask id="mask-2" fill="white">
                    <use xlink:href="#path-1"></use>
                </mask>
                <g id="Clip-10"></g>
                <path d="M531.0778,0.7952 L531.0778,4.5382 L533.9778,4.5282 C538.3488,4.5112 540.7568,6.0502 540.7568,9.0322 L540.8098,33.5032 L540.5158,33.5032 L511.7198,0.8402 L485.8258,0.9022 L485.8258,4.6272 L487.2488,4.6272 C490.7148,4.6272 494.1528,7.1252 494.1528,10.8052 L494.2418,46.7732 C494.2418,51.4822 491.3938,52.4852 488.1888,52.4852 L487.0518,52.4852 L485.5208,52.4952 L485.5208,56.1652 L507.7088,56.1112 L507.6898,52.4412 L506.0248,52.4502 C500.4208,52.4582 498.0738,51.5542 498.0558,47.1122 L497.9838,11.5932 L498.1998,11.5932 L537.4168,56.0402 L544.8398,56.0222 L544.7238,8.8892 C544.7238,6.8832 546.6398,4.5022 551.2598,4.4832 L553.4268,4.4832 L553.4168,0.7502 L531.0778,0.7952 Z M461.6848,28.6062 C461.6588,15.9442 459.9128,3.7772 446.9028,3.8132 C434.1078,3.8392 432.3168,16.0162 432.3438,28.6772 C432.3708,41.3562 434.0628,53.5872 447.0188,53.5602 C460.0198,53.5322 461.7128,41.3012 461.6848,28.6062 Z M479.9508,28.5612 C479.9868,44.7042 463.2438,57.2492 447.0188,57.2752 C430.7408,57.3112 414.0868,44.8562 414.0428,28.7132 C414.0148,12.7392 430.6248,0.2132 446.8938,0.1682 C463.1188,0.1322 479.9158,12.5872 479.9508,28.5612 Z M371.5208,4.8952 L380.4478,4.8782 L380.5638,52.7272 L371.6288,52.7542 L371.6458,56.4252 L406.7268,56.3362 L406.7268,52.6732 L397.6658,52.6912 L397.5408,4.8332 L406.6108,4.8162 L406.6008,1.0732 L371.5208,1.1622 L371.5208,4.8952 Z M340.0038,53.5322 C326.7438,53.5602 324.2188,42.2332 324.1908,29.1342 C324.1548,15.5152 326.8498,4.2512 340.1998,4.2242 C350.9538,4.1972 355.2968,13.3122 356.7738,21.2372 L361.2238,21.2282 L361.1798,2.0222 L358.2688,2.0302 C358.1618,3.6872 357.7408,5.0662 355.5648,5.0752 C353.3978,5.0842 349.2978,0.5362 337.5868,0.5622 C321.9718,0.5892 305.8178,13.7152 305.8528,29.1792 C305.8908,44.9102 322.7048,57.4912 339.0178,57.4552 C352.0738,57.4272 361.9938,49.9962 361.9588,36.7982 L357.3028,36.8072 C357.3288,46.5222 350.3718,53.5152 340.0038,53.5322 Z M271.9728,37.5872 L262.4998,18.7652 L261.5868,18.7652 L252.1768,37.6312 L271.9728,37.5872 Z M299.2368,52.9152 L306.6778,52.8972 L306.6778,56.5682 L271.0068,56.6402 L270.9968,52.9782 L279.7258,52.9602 L273.8168,41.2572 L250.3408,41.3112 L247.2428,47.6772 C247.0098,48.3582 246.5088,49.1992 246.5088,50.0942 C246.5088,52.6832 248.4418,53.0312 250.6978,53.0232 L254.6208,53.0232 L254.6288,56.6852 L232.9878,56.7382 L232.9878,53.0672 L234.8328,53.0582 C239.0408,53.0492 241.1888,50.8642 242.4878,48.2322 L265.5088,1.5112 L272.1518,1.5022 L299.2368,52.9152 Z M233.9368,1.4662 L211.6068,1.5202 L211.6148,5.2632 L214.4348,5.2532 C218.8228,5.2362 221.3118,6.7672 221.3118,9.7482 L221.3658,34.2292 L221.2138,34.2292 L192.2658,1.5652 L166.2558,1.6182 L166.2648,5.3522 L167.7948,5.3522 C171.1878,5.3522 174.6898,7.8502 174.6988,11.5312 L174.7788,47.4982 C174.7878,52.2082 171.8778,53.2012 168.7358,53.2112 L167.5708,53.2112 L165.9778,53.2202 L165.9868,56.8902 L188.2368,56.8372 L188.2198,53.1662 L186.5718,53.1752 C180.8058,53.1832 178.6558,52.2702 178.6388,47.8302 L178.5658,12.3182 L178.7188,12.3182 L217.8918,56.7742 L225.3948,56.7472 L225.2878,9.6142 C225.2878,7.6082 227.1778,5.2272 231.7248,5.2092 L233.9458,5.2002 L233.9368,1.4662 Z M96.6928,37.9802 L87.2928,19.1592 L86.4948,19.1592 L77.1658,38.0242 L96.6928,37.9802 Z M124.0738,53.3092 L131.6318,53.2992 L131.6408,56.9622 L95.8698,57.0422 L95.8598,53.3722 L104.5908,53.3542 L98.6088,41.6512 L75.3028,41.7052 L72.1058,48.1422 C71.8198,48.7962 71.3008,49.6112 71.3008,50.4982 C71.3178,53.0762 73.3238,53.4252 75.6348,53.4252 L79.5108,53.4162 L79.5198,57.0792 L57.7988,57.1322 L57.7798,53.4612 L59.5708,53.4612 C63.9758,53.4522 66.0358,51.2582 67.3338,48.6352 L90.3458,1.9142 L97.1498,1.8962 L124.0738,53.3092 Z M50.1518,35.2672 L54.6648,35.2672 L54.7088,57.1412 L0.6898,57.2582 L0.6898,53.5872 L9.6988,53.5682 L9.5908,5.7912 L0.5828,5.8102 L0.5658,1.9942 L36.5778,1.9142 L36.5958,5.7202 L26.6568,5.7372 L26.7548,53.5322 L28.8858,53.5242 C40.7598,53.4972 50.1868,50.1662 50.1698,37.5502 L50.1518,35.2672 Z" id="Fill-9" fill="#0032A6" mask="url(#mask-2)"></path>
            </g>
            <path d="M111.1119,37.0389 C85.0269,53.5669 62.6509,74.7409 44.6109,99.9709 C26.5679,125.2029 13.7679,153.2189 6.5599,183.2519 C-0.8981,214.3459 -2.0041,246.2359 3.2799,278.0429 C8.5639,309.8499 19.9239,339.6689 37.0369,366.6829 C38.7389,369.3669 40.4919,372.0119 42.2929,374.6149 C44.8889,378.3669 50.1329,379.1229 53.6859,376.2629 C56.8899,373.6829 57.5719,369.0689 55.2289,365.6869 C53.5419,363.2519 51.9039,360.7789 50.3099,358.2689 C34.3299,333.0439 23.7199,305.1869 18.7829,275.4679 C13.8439,245.7479 14.8759,215.9559 21.8409,186.9169 C28.5739,158.8669 40.5349,132.6869 57.3909,109.1109 C74.2519,85.5389 95.1519,65.7519 119.5229,50.3119 C144.7489,34.3279 172.6059,23.7209 202.3229,18.7839 C232.0459,13.8459 261.8359,14.8739 290.8719,21.8429 C318.9229,28.5739 345.1009,40.5379 368.6779,57.3929 C392.2559,74.2509 412.0379,95.1559 427.4779,119.5219 C433.9059,129.6709 439.4649,140.2409 444.1349,151.1879 C445.5759,154.5659 449.0809,156.5659 452.7039,155.9639 C457.7149,155.1309 460.6339,149.8189 458.6429,145.1459 C453.6329,133.3809 447.6649,122.0179 440.7549,111.1119 C424.2209,85.0239 403.0499,62.6519 377.8189,44.6099 C352.5869,26.5689 324.5679,13.7679 294.5379,6.5629 C263.4469,-0.8991 231.5529,-2.0041 199.7469,3.2809 C167.9439,8.5639 138.1229,19.9229 111.1119,37.0389" id="Fill-12" fill="#126FFF"></path>
        </g>
    </g>
</svg>